<?xml version="1.0" encoding="utf-8"?>
<!-- Generator: Adobe Illustrator 21.0.0, SVG Export Plug-In . SVG Version: 6.00 Build 0)  -->
<svg version="1.1" id="Layer_1" xmlns="http://www.w3.org/2000/svg" xmlns:xlink="http://www.w3.org/1999/xlink" x="0px" y="0px"
	 viewBox="0 0 217.5 52.9" style="enable-background:new 0 0 217.5 52.9;" xml:space="preserve">
<style type="text/css">
	.st0{fill:#212121;}
	.st1{fill:#34C6D8;}
</style>
<title>Asset 2</title>
<g id="Layer_2">
	<g id="Layer_1-2">
		<path class="st0" d="M40,52.1l-3-16.8H16.3L7.2,52.1H0L28.7,0.7H37l9.9,51.4H40z M19.4,29.7h16.6l-4.1-23L19.4,29.7z"/>
		<path class="st0" d="M67,52.9c-4.6,0-8.1-1.3-10.8-4s-3.9-6.3-4-10.8c0-2.7,0.5-5.5,1.3-8.1c0.9-2.6,2.2-5.1,3.8-7.3
			c1.7-2.3,4-4.2,6.6-5.5c2.9-1.4,6-2.1,9.2-2.1c3.1-0.1,6.1,0.7,8.8,2.2c2.4,1.5,4.2,3.8,5,6.5l-5.3,2.2c-1.3-3.8-4.3-5.8-8.9-5.8
			c-4.2-0.2-8.2,1.8-10.7,5.2c-2.6,3.5-4,7.7-3.9,12.1c0,3.3,0.9,5.8,2.6,7.5c1.9,1.7,4.3,2.7,6.9,2.6c4.3,0,8.3-2.3,12.1-6.8l4,3.3
			c-1.8,2.5-4.1,4.6-6.8,6.1C74,52,70.5,53,67,52.9z"/>
		<path class="st0" d="M102.2,20.8l-3.5,20.1c-0.1,0.6-0.2,1.2-0.1,1.7c0,3.2,1.5,4.8,4.5,4.8c2.6-0.1,5.1-0.9,7.2-2.3l1.7,4.8
			c-3.1,2-6.6,3-10.3,3.1c-6,0-9-2.9-9-8.8c0-1.2,0.1-2.4,0.4-3.6l3.5-19.7h-6.3l0.8-4.7h6.4L99.1,5h5.9l-1.9,11.1h12.7l-0.8,4.7
			H102.2z"/>
		<polygon class="st0" points="116.3,52.1 122.5,16.1 128.5,16.1 122.2,52.1 		"/>
		<path class="st0" d="M126.7,10.8c-2.3,0-3.5-1.2-3.5-3.5c-0.1-1.2,0.4-2.4,1.3-3.3c0.8-0.9,2-1.3,3.2-1.3c1,0,1.9,0.3,2.6,0.9
			c0.7,0.6,1,1.5,0.9,2.4c0,1.3-0.4,2.5-1.2,3.5C129.1,10.4,127.9,10.9,126.7,10.8z"/>
		<path class="st0" d="M172.4,9.3H150l-2.2,12.3h19.6l-1.5,8.7h-19.7l-3.8,21.8h-10.2l9.1-51.4H174L172.4,9.3z"/>
		<polygon class="st0" points="169.9,52.1 176.2,16.1 186.1,16.1 179.6,52.1 		"/>
		<path class="st1" d="M182.2,11.8c-1.4,0.1-2.7-0.4-3.7-1.4c-0.9-1-1.4-2.2-1.3-3.5c-0.1-1.8,0.6-3.6,1.8-5c1.2-1.3,3-2,4.8-1.9
			c1.4-0.1,2.8,0.4,3.8,1.4c0.9,0.9,1.4,2.2,1.3,3.5c0.1,1.8-0.6,3.6-1.8,4.9C185.8,11.2,184,11.9,182.2,11.8z"/>
		<path class="st0" d="M204.6,22.9l-2.8,16c-0.1,0.5-0.2,1-0.1,1.4c0,2.6,1.3,3.9,4,3.9c2.2-0.1,4.3-0.7,6.3-1.8l1.9,7.3
			c-3.6,2.1-7.7,3.2-11.8,3.2c-6.9,0-10.4-3.2-10.4-9.7c0-1.2,0.1-2.3,0.3-3.5l2.9-16.9h-5.5l1.2-6.8h5.4L197.9,5h9.8l-1.9,11.2
			h11.7l-1.2,6.8L204.6,22.9z"/>
	</g>
</g>
</svg>
